HIERARCHY
ROOT Hips
{
	OFFSET 0.00000 0.00000 0.00000
	CHANNELS 6 Xposition Yposition Zposition Zrotation Yrotation Xrotation 
	JOINT LHipJoint
	{
		OFFSET 0 0 0
		CHANNELS 3 Zrotation Yrotation Xrotation
		JOINT LeftUpLeg
		{
			OFFSET 1.57314 -1.85774 0.63783
			CHANNELS 3 Zrotation Yrotation Xrotation
			JOINT LeftLeg
			{
				OFFSET 2.57982 -7.08799 0.00000
				CHANNELS 3 Zrotation Yrotation Xrotation
				JOINT LeftFoot
				{
					OFFSET 2.63993 -7.25315 0.00000
					CHANNELS 3 Zrotation Yrotation Xrotation
					JOINT LeftToeBase
					{
						OFFSET 0.16864 -0.46332 2.12791
						CHANNELS 3 Zrotation Yrotation Xrotation
						End Site
						{
							OFFSET 0.00000 -0.00000 1.09718
						}
					}
				}
			}
		}
	}
	JOINT RHipJoint
	{
		OFFSET 0 0 0
		CHANNELS 3 Zrotation Yrotation Xrotation
		JOINT RightUpLeg
		{
			OFFSET -1.56006 -1.85774 0.63784
			CHANNELS 3 Zrotation Yrotation Xrotation
			JOINT RightLeg
			{
				OFFSET -2.54246 -6.98536 0.00000
				CHANNELS 3 Zrotation Yrotation Xrotation
				JOINT RightFoot
				{
					OFFSET -2.65791 -7.30256 0.00000
					CHANNELS 3 Zrotation Yrotation Xrotation
					JOINT RightToeBase
					{
						OFFSET -0.18435 -0.50650 2.16316
						CHANNELS 3 Zrotation Yrotation Xrotation
						End Site
						{
							OFFSET -0.00000 -0.00000 1.11780
						}
					}
				}
			}
		}
	}
	JOINT LowerBack
	{
		OFFSET 0 0 0
		CHANNELS 3 Zrotation Yrotation Xrotation
		JOINT Spine
		{
			OFFSET -0.00136 1.92812 -0.29638
			CHANNELS 3 Zrotation Yrotation Xrotation
			JOINT Spine1
			{
				OFFSET -0.00528 1.96223 -0.02928
				CHANNELS 3 Zrotation Yrotation Xrotation
				JOINT Neck
				{
					OFFSET 0 0 0
					CHANNELS 3 Zrotation Yrotation Xrotation
					JOINT Neck1
					{
						OFFSET -0.01015 1.75586 0.07797
						CHANNELS 3 Zrotation Yrotation Xrotation
						JOINT Head
						{
							OFFSET 0.05540 1.72452 0.04558
							CHANNELS 3 Zrotation Yrotation Xrotation
							End Site
							{
								OFFSET 0.02170 1.79958 0.00864
							}
						}
					}
				}
				JOINT LeftShoulder
				{
					OFFSET 0 0 0
					CHANNELS 3 Zrotation Yrotation Xrotation
					JOINT LeftArm
					{
						OFFSET 3.16292 1.29277 -0.65728
						CHANNELS 3 Zrotation Yrotation Xrotation
						JOINT LeftForeArm
						{
							OFFSET 5.52302 -0.00000 -0.00000
							CHANNELS 3 Zrotation Yrotation Xrotation
							JOINT LeftHand
							{
								OFFSET 3.58675 -0.00000 -0.00000
								CHANNELS 3 Zrotation Yrotation Xrotation
								JOINT LeftFingerBase
								{
									OFFSET 0 0 0
									CHANNELS 3 Zrotation Yrotation Xrotation
									JOINT LeftHandIndex1
									{
										OFFSET 0.53641 -0.00000 -0.00000
										CHANNELS 3 Zrotation Yrotation Xrotation
										End Site
										{
											OFFSET 0.43247 -0.00000 -0.00000
										}
									}
								}
								JOINT LThumb
								{
									OFFSET 0 0 0
									CHANNELS 3 Zrotation Yrotation Xrotation
									End Site
									{
										OFFSET 0.43907 -0.00000 0.43907
									}
								}
							}
						}
					}
				}
				JOINT RightShoulder
				{
					OFFSET 0 0 0
					CHANNELS 3 Zrotation Yrotation Xrotation
					JOINT RightArm
					{
						OFFSET -3.08296 1.43376 -0.52927
						CHANNELS 3 Zrotation Yrotation Xrotation
						JOINT RightForeArm
						{
							OFFSET -5.84780 -0.00000 0.00000
							CHANNELS 3 Zrotation Yrotation Xrotation
							JOINT RightHand
							{
								OFFSET -3.62717 -0.00000 -0.00000
								CHANNELS 3 Zrotation Yrotation Xrotation
								JOINT RightFingerBase
								{
									OFFSET 0 0 0
									CHANNELS 3 Zrotation Yrotation Xrotation
									JOINT RightHandIndex1
									{
										OFFSET -0.65052 -0.00000 -0.00000
										CHANNELS 3 Zrotation Yrotation Xrotation
										End Site
										{
											OFFSET -0.52446 -0.00000 -0.00000
										}
									}
								}
								JOINT RThumb
								{
									OFFSET 0 0 0
									CHANNELS 3 Zrotation Yrotation Xrotation
									End Site
									{
										OFFSET -0.53247 -0.00000 0.53247
									}
								}
							}
						}
					}
				}
			}
		}
	}
}
MOTION
Frames: 16
Frame Time: .0083333
0.5552 17.1131 -23.0715 0 0 0 0 0 0 -21 0 0 0 0 0 0 0 0 0 0 0 0 0 0 21 0 0 0 0 0 0 0 0 0 0 0 0 0 0 0 0 0 0 0 0 0 0 -16 0 0 21 0 0 11 0 0 0 -8 0 0 0 0 0 0 0 0 0 0 0 0 0 0 0 0 0 0 0 0 8 0 0 0 0 0 0 0 0 0 0 0 0 0 0 0 0 0
0.5552 17.1131 -23.0715 1.2002 -0.2612 0.2149 0.0000 0.0000 0.0000 -25.7482 -3.2263 -12.1785 5.5170 13.9434 43.0110 1.1606 -8.3498 -19.2898 0.3243 -3.6602 -10.1225 0.0000 0.0000 0.0000 15.1564 5.1497 -27.0454 -27.4915 -18.5974 112.4083 -0.0187 -4.1300 3.5941 -0.0263 1.0471 -2.8784 -3.2409 -0.9049 18.3276 -1.3609 -1.9477 2.3421 0.8542 -0.8630 -7.6818 -0.7839 0.5602 -1.7599 0.8878 0.8061 -8.9416 0.4016 0.4016 -2.5236 -0.0000 -0.0000 0.0000 -82.9433 -9.1756 40.5992 128.5658 -53.5578 -92.6762 -0.0000 0.0000 -32.7859 31.4031 11.6630 7.0353 -7.1250 0.0000 -0.0000 3.8800 43.5414 -0.1399 -0.0000 -0.0000 0.0000 81.4812 -18.1838 39.7295 -84.1753 59.8714 -54.9578 0.0000 0.0000 0.0909 -45.1339 27.6380 -24.9882 7.1250 -0.0000 -0.0000 -8.4358 6.2531 -9.4020
0.5585 17.1345 -22.5890 1.3137 -0.3154 0.2470 0.0000 0.0000 0.0000 -26.1474 -2.4099 -10.0406 5.3057 13.7200 42.1273 1.1683 -7.8269 -19.3250 0.5408 -4.7117 -13.0880 0.0000 0.0000 0.0000 14.6744 6.0920 -29.5636 -27.3773 -18.6417 112.0505 -0.1010 -3.1883 5.7367 -0.0966 -2.0049 5.5191 -3.0809 -1.0895 18.0211 -1.6039 -2.1496 2.7931 0.5386 -0.9831 -7.0352 -0.2942 0.6268 -3.7015 0.9404 0.8949 -8.0591 0.3373 0.4359 -1.8890 0.0000 0.0000 0.0000 -82.4247 -12.2305 40.9619 128.8499 -53.4490 -92.9046 -0.0000 0.0000 -33.1219 31.8143 11.8271 7.2463 -7.1250 0.0000 -0.0000 4.2540 43.7823 -0.1281 0.0000 0.0000 0.0000 82.1135 -17.9962 38.7586 -83.8724 59.8576 -54.6959 0.0000 -0.0000 -0.0309 -45.3185 27.3280 -24.9015 7.1250 -0.0000 -0.0000 -8.6206 5.9673 -9.5742
0.5629 17.1754 -22.1058 1.6650 -0.1822 0.1436 0.0000 0.0000 0.0000 -26.7638 -1.5952 -7.6715 4.9877 13.3700 40.7697 1.0846 -7.2940 -18.6023 0.8924 -6.0212 -16.8459 0.0000 0.0000 0.0000 13.9060 6.7521 -31.8118 -27.0609 -18.7601 111.0638 -0.1314 -1.7739 6.4593 -0.2063 -2.9242 8.0678 -3.3272 -1.4008 18.0847 -1.7142 -2.6123 2.9144 0.6678 -1.2051 -6.9196 -0.0299 0.8204 -4.5076 0.8352 1.1353 -7.4939 0.2624 0.5538 -1.5686 -0.0000 -0.0000 0.0000 -82.3019 -14.1188 41.1550 129.1171 -53.3454 -93.1191 -0.0000 0.0000 -32.9717 32.8819 9.9380 6.3662 -7.1250 0.0000 -0.0000 5.2703 41.7066 -0.4295 -0.0000 -0.0000 0.0000 82.1302 -18.5779 38.4050 -84.3522 59.8791 -55.1108 0.0000 -0.0000 -0.1998 -45.8428 27.3743 -25.3390 7.1250 -0.0000 -0.0000 -8.8977 6.2504 -9.9281
0.5599 17.2303 -21.6105 2.0766 -0.0320 -0.0262 0.0000 0.0000 0.0000 -27.3039 -0.6380 -5.1595 4.6631 12.9941 39.3463 0.9617 -6.8439 -17.5033 1.2921 -7.2023 -20.3162 0.0000 0.0000 0.0000 13.2152 7.3538 -33.5909 -26.5971 -18.9228 109.6276 -0.0934 0.0134 5.7758 -0.1446 -2.4505 6.7523 -3.7972 -1.7279 18.3469 -1.7079 -3.1533 2.7082 1.0794 -1.4457 -7.2413 -0.0088 0.9728 -4.4260 0.6934 1.3275 -7.0231 0.2153 0.6522 -1.4324 -0.0000 -0.0000 0.0000 -82.4288 -15.0667 41.0624 129.3593 -53.2507 -93.3133 -0.0000 0.0000 -32.9929 33.0275 8.0395 5.1950 -7.1250 0.0000 -0.0000 5.3932 39.4875 -0.7352 -0.0000 -0.0000 0.0000 81.7206 -19.7802 38.4623 -85.4761 59.9225 -56.0832 0.0000 -0.0000 -0.5418 -45.7235 27.3325 -25.2156 7.1250 -0.0000 -0.0000 -8.8431 6.1486 -9.8519
0.5461 17.3034 -21.1075 2.2517 0.1223 -0.0966 0.0000 0.0000 0.0000 -27.4485 0.2025 -2.5945 4.2996 12.5488 37.7020 0.8047 -6.3663 -15.9996 1.5989 -7.9753 -22.6390 0.0000 0.0000 0.0000 12.9431 7.9031 -35.1486 -25.9578 -19.1268 107.6667 -0.0256 1.5149 3.9750 -0.0002 0.0820 -0.2252 -4.2061 -2.0254 18.5224 -1.5637 -3.6316 2.4874 1.5902 -1.6537 -7.5205 0.0599 1.1342 -4.3641 0.4273 1.5262 -6.6397 0.1229 0.7538 -1.3194 -0.0000 -0.0000 0.0000 -82.6147 -15.8683 40.7904 129.6546 -53.1339 -93.5497 -0.0000 0.0000 -32.9465 31.4895 6.0785 3.7112 -7.1250 0.0000 -0.0000 4.0452 37.0713 -0.7907 -0.0000 -0.0000 0.0000 81.3515 -20.8831 38.3916 -86.4285 59.9517 -56.9075 0.0000 -0.0000 -0.8281 -45.4795 27.5723 -25.2054 7.1250 -0.0000 -0.0000 -8.6441 6.3253 -9.6489
0.5322 17.4043 -20.5850 2.1225 0.2707 0.1174 0.0000 0.0000 0.0000 -27.1739 0.8356 -0.2434 3.9203 12.0536 35.9218 0.6164 -5.8796 -14.0010 1.8506 -8.5476 -24.3902 0.0000 0.0000 0.0000 13.1254 8.5093 -36.6084 -25.1318 -19.3565 105.1608 0.0237 2.7553 0.6118 -0.4342 4.2283 -11.7198 -4.2250 -2.3704 18.2336 -1.3701 -4.0658 2.2872 1.9023 -1.8576 -7.5414 0.2654 1.3641 -4.7148 0.0534 1.8071 -6.0613 -0.0196 0.8948 -1.0751 -0.0000 0.0000 0.0000 -82.6616 -16.7128 40.8176 130.2321 -52.9015 -94.0111 -0.0000 0.0000 -32.5741 31.4498 5.4928 3.3504 -7.1250 0.0000 -0.0000 4.0063 36.3860 -0.8503 -0.0000 0.0000 0.0000 81.0676 -21.8641 38.2273 -87.3203 59.9728 -57.6795 0.0000 -0.0000 -1.1929 -45.3438 27.8258 -25.2870 7.1250 -0.0000 -0.0000 -8.5010 6.5646 -9.5171
0.5197 17.5044 -20.0558 2.2412 0.3235 0.4510 0.0000 0.0000 0.0000 -27.1150 1.4041 1.9589 3.5349 11.5143 34.0347 0.4060 -5.5698 -11.4130 1.9649 -8.7926 -25.1488 0.0000 0.0000 0.0000 12.9611 9.1615 -38.1419 -24.1922 -19.5733 102.3414 0.0304 3.1129 0.7388 -0.3098 3.5782 -9.8930 -4.5408 -2.7562 17.7595 -1.1640 -4.6110 1.8732 2.4123 -2.1003 -7.6574 0.2539 1.7276 -4.1891 -0.3295 2.2801 -5.8158 -0.1360 1.1353 -1.0808 0.0000 0.0000 0.0000 -82.8163 -16.8254 40.8442 131.4197 -52.4066 -94.9552 -0.0000 0.0000 -32.8068 32.0699 7.2184 4.5015 -7.1250 0.0000 -0.0000 4.5508 38.4436 -0.7367 0.0000 0.0000 0.0000 80.3797 -23.2414 38.5373 -88.3777 59.9901 -58.5951 0.0000 -0.0000 -1.6555 -45.2214 27.6407 -25.0573 7.1250 -0.0000 -0.0000 -8.4834 6.2941 -9.4616
0.5108 17.5970 -19.5255 2.2313 0.2750 0.7560 0.0000 0.0000 0.0000 -26.8619 2.0664 4.0872 3.1380 10.9151 31.9943 0.2034 -5.1888 -8.2708 2.1002 -9.0718 -26.0201 0.0000 0.0000 0.0000 12.9130 9.9511 -39.4937 -23.1256 -19.7641 99.1731 0.0263 2.9813 1.9228 -0.0285 1.0889 -2.9935 -5.0450 -3.3581 17.2765 -0.5362 -5.4540 1.1682 3.5507 -2.4587 -7.9896 -0.8256 2.3244 -2.2993 -0.4963 3.0855 -6.0103 -0.0355 1.5638 -1.4722 -0.0000 -0.0000 0.0000 -83.6190 -15.8131 40.0520 132.6607 -51.8644 -95.9350 -0.0000 0.0000 -33.4334 32.3716 7.5428 4.7568 -7.1250 0.0000 -0.0000 4.8150 38.8477 -0.7318 -0.0000 -0.0000 0.0000 78.3745 -24.9657 39.9830 -89.5240 59.9991 -59.5878 0.0000 -0.0000 -2.2572 -45.0812 27.0636 -24.5258 7.1250 -0.0000 -0.0000 -8.5592 5.5533 -9.4490
0.5036 17.6960 -18.9922 2.1925 0.1152 0.8477 0.0000 0.0000 0.0000 -26.5305 2.8782 6.3549 2.7384 10.2591 29.8198 0.0428 -4.6658 -4.6212 2.0269 -8.9218 -25.5511 0.0000 0.0000 0.0000 12.9540 10.6994 -40.3331 -21.9378 -19.9097 95.6738 0.0263 2.9041 1.4754 -0.0214 0.9441 -2.5950 -5.0852 -3.6446 16.7764 -0.2778 -5.7683 1.6298 3.8504 -2.6496 -7.1516 -1.0161 2.5357 -4.6738 -0.7664 3.3907 -5.2459 -0.0475 1.7149 -0.8363 0.0000 0.0000 0.0000 -83.7628 -17.2100 40.0882 133.2875 -51.5804 -96.4270 -0.0000 0.0000 -33.6097 32.1274 6.8431 4.2790 -7.1250 0.0000 -0.0000 4.5978 38.0086 -0.7935 0.0000 0.0000 0.0000 77.8991 -24.5813 39.7261 -90.0920 60.0000 -60.0797 0.0000 -0.0000 -2.9575 -44.5054 26.9553 -24.0147 7.1250 -0.0000 -0.0000 -8.2675 5.1831 -9.0719
0.4937 17.7983 -18.4506 2.3224 -0.0452 0.8379 0.0000 0.0000 0.0000 -26.3114 3.7696 8.7813 2.3445 9.5496 27.5301 -0.0381 -3.9717 -0.6322 1.9887 -8.8426 -25.3041 0.0000 0.0000 0.0000 12.8335 11.3177 -40.8883 -20.6521 -19.9898 91.9070 0.0184 2.4318 0.5174 -0.0957 1.9949 -5.4917 -4.8489 -3.5011 16.4821 -0.7037 -5.5539 1.6236 3.1982 -2.5615 -7.0838 0.6799 2.3893 -5.3059 -1.3954 3.1135 -4.5759 -0.4984 1.5466 -0.4930 -0.0000 0.0000 0.0000 -82.9175 -17.5030 42.1585 133.9498 -51.2727 -96.9448 -0.0000 0.0000 -32.6025 32.9525 6.3584 4.1062 -7.1250 0.0000 -0.0000 5.2992 37.4970 -0.9819 -0.0000 0.0000 0.0000 79.3941 -25.7482 37.8807 -90.6122 59.9986 -60.5302 0.0000 -0.0000 -3.8201 -43.6091 27.7250 -23.9015 7.1250 -0.0000 -0.0000 -7.5687 5.7153 -8.3549
0.4826 17.8933 -17.9037 2.3479 -0.3359 1.0399 0.0000 0.0000 0.0000 -25.9302 4.6532 10.9436 1.9555 8.7728 25.0872 -0.0017 -2.8828 4.0158 1.9521 -8.7656 -25.0650 0.0000 0.0000 0.0000 12.8140 12.0889 -41.4634 -19.2804 -19.9876 87.8957 0.0046 2.0056 -0.9816 -0.1384 2.3980 -6.6070 -5.3914 -3.9237 16.2589 -0.0359 -6.1726 1.0077 4.3490 -2.8108 -7.4416 -0.4312 2.8845 -4.6814 -1.5209 3.8259 -4.0881 -0.3530 1.9193 -0.4565 0.0000 -0.0000 0.0000 -83.7636 -16.4161 40.7709 134.7543 -50.8883 -97.5708 -0.0000 0.0000 -36.8854 30.9160 3.3138 1.9826 -7.1250 0.0000 -0.0000 3.5286 33.8252 -0.9687 0.0000 -0.0000 0.0000 77.5184 -27.0347 38.8399 -90.8188 59.9975 -60.7091 0.0000 -0.0000 -4.5664 -43.4177 28.1948 -24.0880 7.1250 -0.0000 -0.0000 -7.3401 6.1827 -8.1519
0.4748 17.9837 -17.3539 2.2577 -0.7142 1.4884 0.0000 0.0000 0.0000 -25.6304 5.0435 12.9731 1.5831 7.9376 22.5248 0.1933 -0.7979 8.6344 1.8824 -8.6168 -24.6036 0.0000 0.0000 0.0000 12.9042 13.0083 -42.0246 -17.8314 -19.8869 83.6480 -0.0071 1.4767 -1.6986 -0.1772 2.7114 -7.4764 -5.3955 -4.0810 15.5774 0.2648 -6.3400 0.5153 4.6693 -2.8757 -7.5437 -0.5645 3.0782 -4.0963 -1.7695 4.0826 -3.8574 -0.4117 2.0509 -0.4767 0.0000 0.0000 0.0000 -83.9423 -15.6809 41.2527 135.4268 -50.5577 -98.0913 -0.0000 0.0000 -37.0952 32.1817 5.3446 3.3546 -7.1250 0.0000 -0.0000 4.6222 36.2543 -0.9965 0.0000 0.0000 0.0000 77.0817 -28.4404 38.5929 -91.3508 59.9931 -61.1698 0.0000 -0.0000 -4.7954 -43.1806 27.9722 -23.7573 7.1250 -0.0000 -0.0000 -7.2667 5.8284 -8.0291
0.4704 18.0611 -16.8066 2.1621 -1.0695 1.7507 0.0000 0.0000 0.0000 -25.3915 5.2745 15.2728 1.2376 7.0545 19.8771 0.5244 2.4622 13.0555 1.4511 -7.6145 -21.5492 0.0000 0.0000 0.0000 13.0192 13.6992 -42.2506 -16.3361 -19.6751 79.2315 -0.0141 0.8421 -2.1062 -0.2038 2.9067 -8.0191 -5.2227 -4.1799 15.1153 0.3968 -6.4216 0.1120 4.7099 -2.9054 -7.7173 -0.2293 3.1936 -3.6386 -2.1673 4.2184 -3.5872 -0.5904 2.1160 -0.4523 0.0000 -0.0000 0.0000 -83.7852 -15.1567 42.0978 136.0201 -50.2588 -98.5486 -0.0000 0.0000 -37.2287 32.1323 5.0164 3.1436 -7.1250 0.0000 -0.0000 4.5738 35.8663 -1.0294 0.0000 -0.0000 0.0000 76.9683 -30.0162 38.1018 -92.3924 59.9784 -62.0717 0.0000 -0.0000 -4.9693 -42.8643 27.9897 -23.5364 7.1250 -0.0000 -0.0000 -7.0866 5.7214 -7.8151
0.4657 18.1367 -16.2514 1.8554 -1.7277 1.9601 0.0000 0.0000 0.0000 -25.0246 5.7588 17.6007 0.9126 6.0870 17.0372 0.9387 6.1664 17.2818 0.7972 -5.6990 -15.9137 0.0000 0.0000 0.0000 13.4188 14.5612 -42.1939 -14.7734 -19.3321 74.5533 -0.0206 0.0793 -2.6842 -0.2652 3.3130 -9.1513 -4.7584 -4.2463 13.1153 0.3438 -6.3102 0.7410 4.1417 -2.9594 -5.9921 0.2663 3.3293 -3.7785 -2.3930 4.3734 -3.9210 -0.7407 2.1895 -0.5142 0.0000 -0.0000 0.0000 -82.9812 -16.2024 42.7875 136.3760 -50.0763 -98.8218 -0.0000 0.0000 -37.4569 32.9112 6.3230 4.0771 -7.1250 0.0000 -0.0000 5.2631 37.4523 -0.9809 0.0000 -0.0000 0.0000 77.6815 -29.9761 37.1123 -92.7780 59.9708 -62.4056 0.0000 -0.0000 -5.1080 -42.6586 28.0684 -23.4396 7.1250 -0.0000 -0.0000 -6.9520 5.7305 -7.6656
0.4656 18.2185 -15.6911 1.5423 -2.5264 2.2365 0.0000 0.0000 0.0000 -24.7312 6.3948 19.8991 0.6153 5.0204 13.9666 1.4312 9.8271 21.4975 0.6703 -5.2354 -14.5812 0.0000 0.0000 0.0000 13.7695 15.5313 -41.9284 -13.1638 -18.8405 69.6336 -0.0190 -0.8029 -3.0302 -0.2457 3.1895 -8.8067 -4.3408 -4.2127 12.5010 0.5037 -6.1772 0.4269 4.0185 -2.8992 -6.0230 0.5555 3.5779 -3.6552 -2.6989 4.7005 -3.4155 -0.8747 2.3478 -0.3616 -0.0000 0.0000 0.0000 -82.7418 -15.7135 43.5251 136.7351 -49.8896 -99.0969 -0.0000 0.0000 -37.2194 32.1906 7.1037 4.4514 -7.1250 0.0000 -0.0000 4.6546 38.3186 -0.7679 -0.0000 0.0000 0.0000 77.7305 -31.1892 36.5119 -93.2909 59.9590 -62.8496 0.0000 -0.0000 -5.2397 -42.7704 28.1722 -23.5928 7.1250 -0.0000 -0.0000 -6.9874 5.8948 -7.7231
